<svg width="127" height="142" viewBox="0 0 127 142" fill="none" xmlns="http://www.w3.org/2000/svg">
<path d="M0 2H9.03914L63.0296 82L118.639 2H127V142H0V2ZM8.3612 134.759H118.639V17.0862L66.3222 92H59.2667L8.3612 15.8793V134.759Z" fill="black"/>
<path d="M103.096 141H1V1H53.1869C64.4546 1 73.5536 3.08783 80.5506 7.18754L80.556 7.19068C87.4659 11.1813 92.8312 16.6271 96.6677 23.5398C100.505 30.4554 102.43 38.1076 102.43 46.5172C102.43 56.9119 99.359 66.222 93.2097 74.4799C87.0541 82.611 79.3188 87.987 69.9878 90.6445L68.6473 91.0263L69.4384 92.1739L103.096 141ZM12.3645 6.54886H10.4618L11.5409 8.11598L64.9241 85.6447L65.3045 86.1972L65.96 86.0548C74.9577 84.1003 82.418 79.415 88.3141 72.032C94.2153 64.6428 97.1682 56.1248 97.1682 46.5172C97.1682 38.8717 95.3609 31.8967 91.7353 25.615C88.1047 19.3248 82.9892 14.4985 76.4109 11.1482C70.4637 8.05806 62.7668 6.54886 53.3832 6.54886H12.3645ZM9.09198 15.9427L7.26167 13.2157V16.5V85.6896V86.6896H8.26167H54.701H56.5766L55.5313 85.1323L9.09198 15.9427ZM7.26167 134.451V135.451H8.26167H89.2617H91.1696L90.0841 133.882L61.4299 92.4655L61.1133 92.008L60.5576 92.0357L56.4984 92.2385H8.26167H7.26167V93.2385V134.451Z" fill="#D22A2A" stroke="black" stroke-width="2"/>
</svg>
